<svg id="visual" viewBox="0 0 900 450" width="900" height="450" xmlns="http://www.w3.org/2000/svg" xmlns:xlink="http://www.w3.org/1999/xlink" version="1.1"><path d="M0 360L21.5 352.3C43 344.7 86 329.3 128.8 318.2C171.7 307 214.3 300 257.2 312.3C300 324.7 343 356.3 385.8 357.3C428.7 358.3 471.3 328.7 514.2 322C557 315.3 600 331.7 642.8 343.7C685.7 355.7 728.3 363.3 771.2 362.8C814 362.3 857 353.7 878.5 349.3L900 345L900 451L878.5 451C857 451 814 451 771.2 451C728.3 451 685.7 451 642.8 451C600 451 557 451 514.2 451C471.3 451 428.7 451 385.8 451C343 451 300 451 257.2 451C214.3 451 171.7 451 128.8 451C86 451 43 451 21.5 451L0 451Z" fill="#0066FF" stroke-linecap="round" stroke-linejoin="miter"></path></svg>